M48
; DRILL file KiCad 10.0.6 date 2026-09-15T20:11:27
; FORMAT={-:-/ absolute / metric / decimal}
; #@! TF.CreationDate,2026-09-15T20:11:27+05:30
; #@! TF.GenerationSoftware,Kicad,Pcbnew,10.0.6
; #@! TF.FileFunction,Plated,1,2,PTH
FMAT,2
METRIC
; #@! TA.AperFunction,Plated,PTH,ViaDrill
T1C0.300
; #@! TA.AperFunction,Plated,PTH,ComponentDrill
T2C1.000
; #@! TA.AperFunction,Plated,PTH,ComponentDrill
T3C1.500
; #@! TA.AperFunction,Plated,PTH,ComponentDrill
T4C2.600
%
G90
G05
T1
X150.5Y-41.5
X152.5Y-56.0
X154.0Y-73.0
X156.0Y-43.0
X156.0Y-60.0
X157.5Y-71.5
X157.5Y-77.0
X161.5Y-50.0
X161.5Y-71.0
X162.0Y-77.0
X164.394Y-72.894
T2
X110.0Y-31.19
X110.0Y-33.73
X110.0Y-36.27
X110.0Y-38.81
X153.75Y-32.5
X153.75Y-35.0
X153.75Y-37.5
X153.88Y-50.0
X153.88Y-65.25
X156.42Y-50.0
X156.42Y-65.25
X158.96Y-50.0
X158.96Y-65.25
X161.5Y-50.0
X161.5Y-65.25
X164.04Y-50.0
X164.04Y-65.25
X166.58Y-50.0
X166.58Y-65.25
X168.25Y-32.5
X168.25Y-37.5
X169.12Y-50.0
X169.12Y-65.25
T3
X114.11Y-58.96
X114.11Y-77.96
X120.46Y-56.42
X120.46Y-75.42
X133.5Y-78.0
X139.85Y-75.46
X152.69Y-77.96
X159.04Y-75.42
T4
X161.25Y-29.4
X161.25Y-40.6
M30
